<?xml version="1.0" standalone="no"?>
<!DOCTYPE svg PUBLIC "-//W3C//DTD SVG 20010904//EN"
 "http://www.w3.org/TR/2001/REC-SVG-20010904/DTD/svg10.dtd">
<svg version="1.0" xmlns="http://www.w3.org/2000/svg"
 width="512.000000pt" height="512.000000pt" viewBox="0 0 512.000000 512.000000"
 preserveAspectRatio="xMidYMid meet">
<metadata>
Created by potrace 1.14, written by Peter Selinger 2001-2017
</metadata>
<g transform="translate(0.000000,512.000000) scale(0.100000,-0.100000)"
fill="#000000" stroke="none">
<path d="M415 5110 c-22 -5 -60 -16 -85 -25 -150 -53 -285 -212 -319 -373 -16
-75 -16 -4229 0 -4304 29 -137 148 -293 269 -351 126 -61 -23 -57 2280 -57
2303 0 2154 -4 2280 57 121 58 240 214 269 351 16 75 16 4229 0 4304 -29 137
-148 293 -269 351 -127 61 23 57 -2280 56 -1158 -1 -2123 -5 -2145 -9z m438
-1642 c143 -411 510 -1454 513 -1457 2 -2 7 -2 10 2 5 5 524 1485 524 1494 0
2 63 3 140 3 77 0 140 -3 140 -7 0 -4 -150 -432 -332 -950 l-333 -943 -156 0
c-140 0 -158 2 -164 18 -35 90 -655 1857 -655 1868 0 11 27 14 149 14 l149 0
15 -42z m2084 30 c4 -7 136 -335 293 -729 157 -395 289 -718 294 -719 5 -1
141 326 301 727 l291 728 237 3 237 2 0 -950 0 -950 -145 0 -145 0 0 780 c0
429 -4 780 -8 780 -4 0 -93 -215 -196 -477 -104 -263 -243 -614 -309 -780
l-119 -303 -154 0 c-136 0 -154 2 -163 18 -5 9 -142 357 -306 772 -163 415
-301 759 -306 765 -5 5 -9 -305 -9 -773 l0 -782 -130 0 -130 0 0 950 0 950
229 0 c173 0 232 -3 238 -12z"/>
</g>
</svg>
